<?xml version="1.0" standalone="no"?>
<!DOCTYPE svg PUBLIC "-//W3C//DTD SVG 20010904//EN"
 "http://www.w3.org/TR/2001/REC-SVG-20010904/DTD/svg10.dtd">
<svg version="1.0" xmlns="http://www.w3.org/2000/svg"
 width="1280.000000pt" height="1242.000000pt" viewBox="0 0 1280.000000 1242.000000"
 preserveAspectRatio="xMidYMid meet">
 <title>Fly</title>
<g transform="translate(0.000000,1242.000000) scale(0.100000,-0.100000)"
fill="#000000" stroke="none">
<path d="M0 6210 l0 -6210 6400 0 6400 0 0 6210 0 6210 -6400 0 -6400 0 0
-6210z m9255 2584 c-11 -9 -45 -27 -75 -41 -60 -27 -521 -183 -610 -207 -193
-51 -338 -87 -422 -106 -94 -21 -98 -24 -115 -58 -27 -54 -77 -61 -135 -20
-13 9 -23 9 -50 -5 -196 -97 -1023 -336 -1168 -337 l-35 0 40 24 c119 70 629
234 1018 326 94 23 175 44 181 48 6 3 18 5 26 4 21 -3 63 37 56 54 -7 19 24
18 52 -2 22 -15 31 -13 170 39 81 31 192 70 247 87 55 18 109 35 120 40 11 4
74 22 140 40 66 18 138 38 160 45 93 31 339 83 395 84 25 0 25 0 5 -15z
m-1045 -505 c26 -48 42 -121 47 -219 6 -120 -2 -161 -49 -240 -26 -43 -39 -56
-61 -58 -40 -5 -103 31 -170 96 l-59 57 6 -40 7 -40 -158 -83 c-87 -45 -232
-122 -323 -170 -91 -48 -225 -119 -298 -157 -311 -163 -337 -180 -335 -209 5
-66 92 -127 187 -131 l61 -2 22 -76 c30 -104 37 -115 86 -127 230 -59 433
-224 528 -428 54 -118 73 -204 73 -337 0 -132 -14 -201 -66 -320 -32 -73 -103
-185 -117 -185 -4 0 -31 78 -60 173 -29 94 -65 215 -81 267 -16 52 -38 127
-50 165 -27 91 -28 93 -81 104 -24 4 -130 29 -236 55 -105 25 -200 46 -211 46
-10 0 -50 -34 -91 -77 -41 -43 -110 -116 -155 -164 -44 -47 -91 -97 -104 -111
l-23 -26 100 -335 c92 -307 108 -367 97 -367 -5 0 -74 28 -115 47 -149 68
-298 218 -371 376 -96 205 -94 467 6 671 37 74 108 179 143 210 27 24 26 33
-4 131 -14 44 -25 83 -25 86 0 3 20 19 44 34 59 37 96 105 96 174 0 36 -4 53
-14 57 -15 6 -249 -13 -811 -66 -176 -17 -351 -33 -390 -36 l-70 -6 -12 32
c-16 43 -29 31 -36 -34 -6 -65 -36 -136 -71 -171 l-25 -25 -45 18 c-72 28
-131 76 -176 142 -46 68 -97 183 -106 240 l-6 37 73 23 c316 97 313 97 325 38
9 -40 28 -53 61 -40 41 16 767 232 778 232 6 0 21 -16 35 -35 26 -37 57 -49
45 -17 -4 9 -12 40 -18 69 -14 66 0 84 87 113 59 19 64 24 84 69 41 89 131
164 238 196 27 8 86 15 131 15 74 0 88 -3 149 -35 75 -39 93 -42 154 -20 38
13 46 13 75 -1 26 -12 37 -26 51 -70 11 -31 24 -55 29 -55 6 0 12 22 15 47 l5
47 60 19 c114 35 220 67 375 113 85 26 193 58 240 72 47 14 96 28 110 32 27 8
32 37 17 93 -7 25 -4 27 50 44 32 9 114 34 183 55 69 21 128 38 132 38 4 1 12
-8 18 -20z m-2050 -417 c0 -8 -122 -62 -244 -107 -203 -76 -691 -218 -859
-250 -106 -21 -123 -28 -139 -62 -7 -15 -25 -34 -41 -43 -25 -14 -30 -13 -68
7 l-41 22 -84 -35 c-219 -91 -689 -231 -964 -288 -169 -35 -180 -36 -180 -27
0 14 58 44 155 79 50 18 106 39 125 47 38 15 332 108 470 149 47 14 128 35
180 47 52 11 115 27 140 34 25 8 66 17 92 21 26 3 53 12 59 20 6 8 21 11 33 8
26 -6 61 28 53 51 -8 20 17 20 53 -2 27 -16 31 -15 132 25 301 120 948 302
1101 311 15 0 27 -3 27 -7z m-2065 -2926 c48 -22 105 -81 105 -108 0 -11 -93
-68 -112 -68 -4 0 -18 11 -32 25 -19 19 -35 25 -70 25 -41 0 -76 -18 -76 -38
0 -25 38 -53 97 -72 152 -50 223 -120 223 -222 0 -101 -76 -174 -201 -193
-102 -15 -224 37 -267 113 l-22 40 25 16 c13 9 28 16 33 16 5 0 15 7 22 15 18
22 46 18 63 -9 20 -31 78 -50 129 -43 50 7 68 22 68 58 0 33 -10 40 -117 76
-128 42 -174 82 -192 162 -19 85 26 177 103 212 60 27 157 25 221 -5z m2232
-6 c137 -61 224 -227 194 -372 -17 -84 -40 -125 -100 -181 -75 -70 -128 -92
-226 -92 -65 1 -91 6 -136 27 -78 36 -133 89 -170 164 -30 60 -31 68 -27 156
3 71 10 103 27 136 47 91 130 157 228 182 52 13 159 3 210 -20z m2168 -6 c55
-26 150 -118 140 -134 -3 -4 -30 -22 -61 -39 l-55 -32 -45 40 c-98 86 -240 55
-295 -64 -35 -75 -14 -164 50 -218 30 -25 87 -47 121 -47 39 0 95 25 132 58
l40 36 56 -31 c31 -18 58 -37 60 -43 2 -5 -24 -37 -57 -70 -52 -50 -71 -62
-133 -81 -163 -48 -324 24 -400 179 -29 58 -33 76 -32 142 3 249 256 409 479
304z m-5772 -86 c40 -62 86 -134 103 -160 48 -79 54 -68 54 112 l0 160 75 0
75 0 0 -325 0 -326 -66 3 -66 3 -59 90 c-31 50 -65 104 -74 120 -28 53 -90
139 -100 139 -6 1 -11 -66 -13 -176 l-2 -178 -75 0 -75 0 0 325 0 325 75 0 76
0 72 -112z m567 -114 c0 -135 4 -233 10 -245 30 -55 144 -65 187 -14 23 26 23
31 23 256 l0 229 76 0 76 0 -4 -253 -3 -254 -27 -40 c-95 -144 -302 -165 -419
-43 -63 64 -69 99 -69 370 l0 220 75 0 75 0 0 -226z m1710 193 c75 -39 123
-88 156 -161 38 -83 40 -200 5 -266 -48 -92 -114 -151 -195 -174 -52 -15 -363
-25 -384 -13 -6 4 -10 128 -10 328 l-1 321 187 -4 c182 -3 188 -4 242 -31z
m644 21 c53 -16 118 -81 134 -134 25 -86 7 -161 -57 -234 l-30 -34 28 -51 c15
-27 45 -81 65 -118 l38 -68 -87 3 -86 3 -39 73 c-62 115 -77 132 -113 132 -32
0 -59 -12 -58 -24 1 -3 1 -46 1 -96 l0 -90 -70 0 -70 0 0 325 0 325 151 0 c91
0 168 -5 193 -12z m1167 -55 c112 -180 163 -253 173 -250 7 2 12 59 14 160 l3
157 69 0 70 0 1 -117 c1 -65 1 -210 1 -323 l-1 -205 -63 -3 -63 -2 -105 166
c-110 177 -126 198 -141 189 -5 -4 -9 -84 -9 -180 0 -196 7 -182 -86 -177
l-53 4 -3 316 c-2 175 -2 320 0 325 2 4 36 7 77 7 l73 0 43 -67z m877 18 c7
-91 8 -90 -131 -93 l-122 -3 0 -50 0 -50 113 -3 112 -3 0 -69 0 -69 -112 -3
-113 -3 0 -55 0 -55 125 -5 125 -5 3 -67 3 -68 -206 0 -205 0 0 325 0 325 203
-2 202 -3 3 -44z m1192 -206 l0 -254 128 -3 127 -3 3 -67 3 -68 -206 0 -205 0
0 325 0 325 75 0 75 0 0 -255z m490 20 c3 -126 9 -236 13 -243 32 -49 144 -54
184 -7 23 26 23 31 23 256 l0 229 76 0 76 0 -4 -247 c-3 -231 -4 -251 -25
-288 -28 -52 -57 -79 -118 -107 -100 -45 -237 -24 -308 48 -61 61 -62 67 -65
342 l-3 253 73 -3 73 -3 5 -230z m848 216 c20 -10 48 -31 61 -45 33 -35 52
-113 39 -162 -5 -22 -12 -48 -14 -59 -3 -12 6 -40 20 -65 58 -102 9 -249 -97
-289 -16 -6 -104 -11 -203 -11 l-174 0 0 325 0 325 165 0 c143 0 171 -3 203
-19z m-6338 -1025 c0 -106 2 -116 21 -130 13 -9 19 -21 16 -30 -9 -22 -24 -20
-52 9 -24 23 -25 30 -25 145 0 113 1 120 20 120 19 0 20 -7 20 -114z m1740 99
c0 -8 -7 -15 -15 -15 -8 0 -15 7 -15 15 0 8 7 15 15 15 8 0 15 -7 15 -15z
m100 -100 c0 -104 2 -116 20 -127 11 -7 20 -21 20 -31 0 -14 -5 -17 -22 -12
-46 13 -53 35 -56 153 -3 117 0 132 24 132 11 0 14 -22 14 -115z m310 -9 c0
-137 -4 -149 -61 -161 -17 -4 -55 -4 -85 0 -64 8 -74 21 -74 98 0 76 18 96 90
99 49 3 55 1 55 -17 0 -17 -8 -20 -48 -23 -54 -4 -69 -24 -60 -78 7 -36 18
-44 63 -44 81 0 80 -1 80 124 0 114 3 126 27 126 10 0 13 -27 13 -124z m868 2
c2 -107 4 -117 23 -123 29 -10 20 -41 -11 -37 -43 4 -50 26 -50 160 0 112 2
123 18 120 15 -3 17 -18 20 -120z m-3127 73 c26 -32 26 -110 0 -142 -16 -20
-30 -24 -95 -27 -72 -4 -76 -3 -76 17 0 19 6 21 63 21 73 0 87 10 87 60 0 20
-5 41 -12 48 -17 17 -152 16 -166 -1 -6 -7 -13 -58 -14 -113 -2 -79 -6 -99
-18 -99 -11 0 -14 21 -15 113 0 109 1 115 25 134 21 17 36 19 113 16 79 -3 91
-6 108 -27z m1444 9 c14 -15 16 -29 12 -63 -4 -31 -2 -50 8 -63 8 -10 15 -36
15 -56 0 -58 -25 -69 -151 -66 l-104 3 -5 113 c-3 63 -2 122 2 133 7 17 18 19
106 19 86 0 101 -3 117 -20z m1593 -2 c3 -16 -7 -18 -97 -18 l-100 0 -3 -112
c-2 -93 -6 -113 -18 -113 -12 0 -16 21 -18 119 -1 66 0 126 2 133 4 11 31 13
118 11 98 -3 113 -5 116 -20z m1192 2 c5 -8 10 -36 10 -61 0 -47 -21 -77 -62
-92 -26 -9 -22 -21 18 -56 29 -24 33 -32 21 -37 -19 -7 -42 5 -96 51 -24 19
-49 35 -57 35 -8 0 -14 9 -14 20 0 18 7 20 58 20 73 0 95 14 90 60 l-3 35 -90
0 -90 0 -5 -110 c-4 -89 -8 -110 -20 -110 -12 0 -16 21 -18 118 -2 84 0 123 9
133 18 22 235 16 249 -6z m1218 -13 c3 -26 39 -46 59 -34 5 3 15 2 23 -3 23
-14 -7 -40 -46 -40 l-33 0 -3 -77 c-2 -61 -6 -78 -18 -78 -12 0 -16 17 -18 78
-2 68 -5 77 -22 77 -29 0 -50 11 -50 26 0 8 6 15 13 16 6 0 17 2 22 3 6 2 16
3 23 4 6 0 12 12 12 24 0 46 33 49 38 4z m-4465 -48 c26 -22 47 -46 46 -52 -1
-19 -98 -97 -119 -97 -11 0 -20 2 -20 4 0 3 21 25 47 49 l47 44 -50 46 c-45
43 -47 47 -24 47 15 0 44 -17 73 -41z m1581 0 c25 -22 46 -46 46 -52 0 -19
-97 -97 -119 -97 -29 0 -27 5 19 46 22 20 40 44 40 52 0 9 -19 33 -42 54 -42
36 -42 37 -17 38 17 0 43 -15 73 -41z m1174 2 c23 -21 42 -46 42 -54 0 -24
-91 -97 -120 -96 -23 0 -22 3 23 42 26 24 47 48 47 54 0 6 -18 27 -40 47 -46
42 -48 46 -17 46 12 -1 41 -18 65 -39z m-3372 4 c29 -7 48 -56 41 -111 -7 -63
-23 -76 -102 -81 -82 -6 -115 11 -115 59 0 49 24 68 85 68 55 0 66 -5 59 -24
-3 -7 -25 -14 -51 -15 -49 -1 -69 -17 -51 -38 13 -17 110 -17 126 -1 15 15 16
95 0 104 -6 4 -33 6 -60 5 -37 -1 -50 3 -55 15 -3 9 -1 19 6 23 12 8 79 5 117
-4z m297 -26 c24 -29 21 -164 -3 -164 -11 0 -16 15 -18 65 -2 35 -8 70 -14 77
-6 8 -33 13 -69 13 l-58 0 -3 -77 c-2 -61 -6 -78 -18 -78 -12 0 -15 17 -15 95
l0 95 60 5 c74 6 114 -3 138 -31z m907 -34 c0 -55 3 -66 22 -79 27 -19 101
-21 116 -3 6 7 12 44 14 82 4 103 23 86 26 -24 3 -108 2 -111 -74 -111 -69 0
-112 16 -129 51 -19 35 -20 145 -2 152 22 8 27 -4 27 -68z m1680 -5 c0 -78 10
-90 75 -90 29 0 36 -3 33 -17 -2 -14 -15 -19 -51 -21 -39 -3 -51 1 -72 22 -22
22 -25 33 -25 100 0 50 4 76 13 79 23 8 27 -4 27 -73z m1242 53 c21 -19 23
-62 4 -88 -19 -26 -123 -35 -132 -11 -8 22 -4 25 37 27 53 2 69 9 69 29 0 13
-9 19 -38 22 -21 1 -51 1 -67 -2 -29 -5 -30 -7 -30 -60 l0 -55 53 -3 c44 -3
53 -6 50 -20 -2 -13 -15 -18 -51 -19 -66 -3 -97 26 -97 91 0 59 17 95 49 102
14 3 31 7 36 8 27 7 101 -6 117 -21z m273 -6 c9 -13 15 -44 15 -75 0 -43 -5
-58 -25 -77 -34 -35 -125 -34 -125 1 0 10 13 14 43 14 60 0 69 9 65 66 l-3 49
-67 3 -68 3 -2 -43 c0 -24 0 -63 1 -88 2 -59 -6 -90 -24 -90 -12 0 -15 19 -15
106 0 150 9 162 124 156 54 -3 69 -8 81 -25z m268 1 c42 -50 -1 -108 -80 -108
-31 0 -45 5 -50 16 -6 16 15 37 29 28 4 -3 23 -2 43 2 25 4 35 11 35 25 0 11
-6 20 -12 20 -38 4 -114 -3 -121 -10 -4 -4 -7 -30 -5 -57 l3 -49 53 -3 c44 -3
53 -6 50 -20 -2 -13 -16 -18 -52 -20 -70 -5 -96 22 -96 98 0 92 23 110 130
103 40 -3 60 -10 73 -25z m250 4 c13 -11 17 -30 17 -76 0 -34 -4 -66 -8 -72
-31 -47 -168 -45 -199 2 -8 13 -12 32 -8 43 12 39 34 51 91 51 47 0 55 -3 52
-17 -2 -14 -16 -19 -53 -23 -42 -4 -50 -8 -50 -25 0 -17 8 -20 58 -23 74 -4
86 6 84 66 l-2 47 -65 5 c-49 4 -65 9 -65 20 0 29 115 31 148 2z m-3431 -68
c2 -47 -1 -92 -5 -100 -18 -31 -27 1 -27 92 0 75 3 94 14 94 11 0 15 -20 18
-86z m1586 -40 c-4 -118 -6 -128 -27 -145 -16 -13 -39 -19 -72 -19 -42 0 -49
3 -49 20 0 17 7 20 45 20 59 0 65 14 65 144 0 101 1 106 21 106 21 0 21 -3 17
-126z m-421 70 c9 -24 -9 -30 -78 -27 -69 3 -74 5 -66 28 9 22 135 22 144 -1z"/>
<path d="M8127 8257 c-16 -11 -17 -16 -3 -55 23 -64 46 -185 47 -246 2 -76 14
-90 35 -41 31 76 4 320 -39 347 -16 10 -20 10 -40 -5z"/>
<path d="M6340 7829 c-70 -42 -110 -109 -70 -117 39 -7 161 103 144 130 -9 14
-38 9 -74 -13z"/>
<path d="M4763 7244 c-9 -23 31 -140 68 -199 38 -61 98 -125 117 -125 7 0 12
3 10 8 -2 4 -25 50 -51 102 -26 52 -55 124 -65 160 -17 57 -22 65 -45 68 -18
2 -29 -2 -34 -14z"/>
<path d="M6776 7173 c21 -84 110 -163 184 -163 29 0 36 -5 89 -70 25 -31 27
-14 6 58 l-16 52 -45 0 c-60 0 -122 36 -170 101 -43 55 -58 62 -48 22z"/>
<path d="M6496 7048 c-10 -81 -29 -121 -81 -165 -38 -32 -42 -38 -35 -67 9
-40 28 -76 40 -76 6 0 10 22 10 48 0 42 4 51 30 70 45 34 70 91 70 161 0 106
-23 126 -34 29z"/>
<path d="M7350 6746 c0 -2 32 -35 71 -72 184 -179 278 -418 265 -674 -6 -112
-6 -114 11 -85 22 39 30 236 14 328 -21 122 -93 268 -178 367 -59 66 -183 159
-183 136z"/>
<path d="M6253 6415 c-24 -46 -54 -151 -64 -223 -33 -233 71 -508 249 -656 37
-32 25 -5 -34 73 -67 89 -104 162 -138 267 -28 86 -48 235 -41 299 11 96 17
133 31 183 17 56 15 91 -3 57z"/>
<path d="M6127 4805 c-130 -46 -166 -208 -68 -306 97 -97 259 -63 308 65 36
95 -11 200 -109 241 -45 18 -81 19 -131 0z"/>
<path d="M4728 4814 c-13 -12 -10 -352 3 -359 5 -4 49 -6 96 -6 75 1 90 4 126
29 59 38 90 101 84 170 -4 58 -22 89 -81 136 -34 28 -44 30 -129 34 -51 2 -95
1 -99 -4z"/>
<path d="M5454 4808 c-5 -7 -11 -38 -13 -69 -4 -74 8 -82 100 -77 60 3 74 8
90 27 24 30 24 72 0 102 -16 20 -30 24 -93 27 -54 3 -77 0 -84 -10z"/>
<path d="M10004 4806 c-3 -8 -4 -31 -2 -52 l3 -39 76 -3 c60 -2 80 1 93 13 23
23 21 72 -3 85 -31 16 -160 13 -167 -4z"/>
<path d="M10010 4572 c-5 -2 -10 -30 -10 -63 l0 -59 95 0 c102 0 115 7 115 62
0 48 -19 59 -108 61 -45 1 -86 1 -92 -1z"/>
<path d="M5029 3953 c-12 -171 -13 -169 80 -171 91 -2 121 11 102 46 -10 19
-59 37 -86 32 -6 -2 -23 -2 -38 -1 -21 1 -28 5 -25 19 2 13 16 18 57 22 57 5
80 23 68 54 -5 13 -21 16 -82 16 -64 0 -75 -2 -76 -17z"/>
</g>
</svg>
